<?xml version="1.0" encoding="UTF-8" standalone="no"?>
<!DOCTYPE svg PUBLIC "-//W3C//DTD SVG 1.1//EN"
 "http://www.w3.org/Graphics/SVG/1.1/DTD/svg11.dtd">
<!-- Generated by graphviz version 2.47.0 (20210316.0004)
 -->
<!-- Title: dependencies Pages: 1 -->
<svg width="504pt" height="211pt"
 viewBox="0.00 0.00 504.00 211.00" xmlns="http://www.w3.org/2000/svg" xmlns:xlink="http://www.w3.org/1999/xlink">
<g id="graph0" class="graph" transform="scale(1 1) rotate(0) translate(4 207)">
<title>dependencies</title>
<polygon fill="white" stroke="transparent" points="-4,4 -4,-207 500,-207 500,4 -4,4"/>
<text text-anchor="start" x="227.01" y="-42.4" font-family="Times-12" font-weight="bold" font-size="14.00">Legend</text>
<polygon fill="#ffffb3" stroke="transparent" points="14,-10 14,-30 34,-30 34,-10 14,-10"/>
<text text-anchor="start" x="37.63" y="-15.4" font-family="Times-12" font-size="14.00"> &#160;Declarations</text>
<polygon fill="#8dd3c7" stroke="transparent" points="127,-10 127,-30 147,-30 147,-10 127,-10"/>
<text text-anchor="start" x="150.73" y="-15.4" font-family="Times-12" font-size="14.00"> &#160;Module</text>
<polygon fill="#80b1d3" stroke="transparent" points="213,-10 213,-30 233,-30 233,-10 213,-10"/>
<text text-anchor="start" x="236.78" y="-15.4" font-family="Times-12" font-size="14.00"> &#160;Bootstrap</text>
<polygon fill="#fdb462" stroke="transparent" points="310,-10 310,-30 330,-30 330,-10 310,-10"/>
<text text-anchor="start" x="333.67" y="-15.4" font-family="Times-12" font-size="14.00"> &#160;Providers</text>
<polygon fill="#fb8072" stroke="transparent" points="406,-10 406,-30 426,-30 426,-10 406,-10"/>
<text text-anchor="start" x="429.73" y="-15.4" font-family="Times-12" font-size="14.00"> &#160;Exports</text>
<g id="clust1" class="cluster">
<title>cluster_ProductRentDetailsModule</title>
<polygon fill="none" stroke="black" stroke-dasharray="1,5" points="55,-70 55,-195 441,-195 441,-70 55,-70"/>
</g>
<g id="clust3" class="cluster">
<title>cluster_ProductRentDetailsModule_imports</title>
<polygon fill="none" stroke="black" points="319,-78 319,-130 433,-130 433,-78 319,-78"/>
</g>
<g id="clust6" class="cluster">
<title>cluster_ProductRentDetailsModule_providers</title>
<polygon fill="none" stroke="black" points="63,-78 63,-130 311,-130 311,-78 63,-78"/>
</g>
<!-- PrismaModule -->
<g id="node1" class="node">
<title>PrismaModule</title>
<polygon fill="#8dd3c7" stroke="black" points="425.43,-122 422.43,-126 401.43,-126 398.43,-122 326.57,-122 326.57,-86 425.43,-86 425.43,-122"/>
<text text-anchor="middle" x="376" y="-99.8" font-family="Times,serif" font-size="14.00">PrismaModule</text>
</g>
<!-- ProductRentDetailsModule -->
<g id="node2" class="node">
<title>ProductRentDetailsModule</title>
<polygon fill="#8dd3c7" stroke="black" points="351.69,-187 348.69,-191 327.69,-191 324.69,-187 182.31,-187 182.31,-151 351.69,-151 351.69,-187"/>
<text text-anchor="middle" x="267" y="-164.8" font-family="Times,serif" font-size="14.00">ProductRentDetailsModule</text>
</g>
<!-- PrismaModule&#45;&gt;ProductRentDetailsModule -->
<g id="edge1" class="edge">
<title>PrismaModule&#45;&gt;ProductRentDetailsModule</title>
<path fill="none" stroke="black" d="M339.19,-122.11C339.19,-122.11 339.19,-140.99 339.19,-140.99"/>
<polygon fill="black" stroke="black" points="335.69,-140.99 339.19,-150.99 342.69,-140.99 335.69,-140.99"/>
</g>
<!-- ProductRentDetailsService -->
<g id="node3" class="node">
<title>ProductRentDetailsService</title>
<ellipse fill="#fdb462" stroke="black" cx="187" cy="-104" rx="115.74" ry="18"/>
<text text-anchor="middle" x="187" y="-99.8" font-family="Times,serif" font-size="14.00">ProductRentDetailsService</text>
</g>
<!-- ProductRentDetailsService&#45;&gt;ProductRentDetailsModule -->
<g id="edge2" class="edge">
<title>ProductRentDetailsService&#45;&gt;ProductRentDetailsModule</title>
<path fill="none" stroke="black" d="M242.51,-120.07C242.51,-120.07 242.51,-140.82 242.51,-140.82"/>
<polygon fill="black" stroke="black" points="239.01,-140.82 242.51,-150.82 246.01,-140.82 239.01,-140.82"/>
</g>
</g>
</svg>
