<?xml version="1.0" encoding="UTF-8" standalone="no"?>
<!DOCTYPE svg PUBLIC "-//W3C//DTD SVG 1.1//EN"
 "http://www.w3.org/Graphics/SVG/1.1/DTD/svg11.dtd">
<!-- Generated by graphviz version 2.47.0 (20210316.0004)
 -->
<!-- Title: dependencies Pages: 1 -->
<svg width="841pt" height="284pt"
 viewBox="0.00 0.00 841.00 284.00" xmlns="http://www.w3.org/2000/svg" xmlns:xlink="http://www.w3.org/1999/xlink">
<g id="graph0" class="graph" transform="scale(1 1) rotate(0) translate(4 280)">
<title>dependencies</title>
<polygon fill="white" stroke="transparent" points="-4,4 -4,-280 837,-280 837,4 -4,4"/>
<text text-anchor="start" x="395.51" y="-42.4" font-family="Times-12" font-weight="bold" font-size="14.00">Legend</text>
<polygon fill="#ffffb3" stroke="transparent" points="182.5,-10 182.5,-30 202.5,-30 202.5,-10 182.5,-10"/>
<text text-anchor="start" x="206.13" y="-15.4" font-family="Times-12" font-size="14.00"> &#160;Declarations</text>
<polygon fill="#8dd3c7" stroke="transparent" points="295.5,-10 295.5,-30 315.5,-30 315.5,-10 295.5,-10"/>
<text text-anchor="start" x="319.23" y="-15.4" font-family="Times-12" font-size="14.00"> &#160;Module</text>
<polygon fill="#80b1d3" stroke="transparent" points="381.5,-10 381.5,-30 401.5,-30 401.5,-10 381.5,-10"/>
<text text-anchor="start" x="405.28" y="-15.4" font-family="Times-12" font-size="14.00"> &#160;Bootstrap</text>
<polygon fill="#fdb462" stroke="transparent" points="478.5,-10 478.5,-30 498.5,-30 498.5,-10 478.5,-10"/>
<text text-anchor="start" x="502.17" y="-15.4" font-family="Times-12" font-size="14.00"> &#160;Providers</text>
<polygon fill="#fb8072" stroke="transparent" points="574.5,-10 574.5,-30 594.5,-30 594.5,-10 574.5,-10"/>
<text text-anchor="start" x="598.23" y="-15.4" font-family="Times-12" font-size="14.00"> &#160;Exports</text>
<g id="clust1" class="cluster">
<title>cluster_CategoriesModule</title>
<polygon fill="none" stroke="black" stroke-dasharray="1,5" points="8,-70 8,-268 825,-268 825,-70 8,-70"/>
</g>
<g id="clust6" class="cluster">
<title>cluster_CategoriesModule_providers</title>
<polygon fill="none" stroke="black" points="138,-78 138,-130 817,-130 817,-78 138,-78"/>
</g>
<g id="clust3" class="cluster">
<title>cluster_CategoriesModule_imports</title>
<polygon fill="none" stroke="black" points="16,-78 16,-130 130,-130 130,-78 16,-78"/>
</g>
<g id="clust4" class="cluster">
<title>cluster_CategoriesModule_exports</title>
<polygon fill="none" stroke="black" points="315,-208 315,-260 453,-260 453,-208 315,-208"/>
</g>
<!-- PrismaModule -->
<g id="node1" class="node">
<title>PrismaModule</title>
<polygon fill="#8dd3c7" stroke="black" points="122.43,-122 119.43,-126 98.43,-126 95.43,-122 23.57,-122 23.57,-86 122.43,-86 122.43,-122"/>
<text text-anchor="middle" x="73" y="-99.8" font-family="Times,serif" font-size="14.00">PrismaModule</text>
</g>
<!-- CategoriesModule -->
<g id="node2" class="node">
<title>CategoriesModule</title>
<polygon fill="#8dd3c7" stroke="black" points="443.92,-187 440.92,-191 419.92,-191 416.92,-187 324.08,-187 324.08,-151 443.92,-151 443.92,-187"/>
<text text-anchor="middle" x="384" y="-164.8" font-family="Times,serif" font-size="14.00">CategoriesModule</text>
</g>
<!-- PrismaModule&#45;&gt;CategoriesModule -->
<g id="edge1" class="edge">
<title>PrismaModule&#45;&gt;CategoriesModule</title>
<path fill="none" stroke="black" d="M73,-122.11C73,-141.34 73,-169 73,-169 73,-169 314.04,-169 314.04,-169"/>
<polygon fill="black" stroke="black" points="314.04,-172.5 324.04,-169 314.04,-165.5 314.04,-172.5"/>
</g>
<!-- CategoriesService  -->
<g id="node3" class="node">
<title>CategoriesService </title>
<polygon fill="#fb8072" stroke="black" points="444.84,-252 323.16,-252 323.16,-216 444.84,-216 444.84,-252"/>
<text text-anchor="middle" x="384" y="-229.8" font-family="Times,serif" font-size="14.00">CategoriesService </text>
</g>
<!-- CategoriesModule&#45;&gt;CategoriesService  -->
<g id="edge2" class="edge">
<title>CategoriesModule&#45;&gt;CategoriesService </title>
<path fill="none" stroke="black" stroke-dasharray="5,2" d="M384,-187.11C384,-187.11 384,-205.99 384,-205.99"/>
<polygon fill="black" stroke="black" points="380.5,-205.99 384,-215.99 387.5,-205.99 380.5,-205.99"/>
</g>
<!-- CategoriesService -->
<g id="node4" class="node">
<title>CategoriesService</title>
<ellipse fill="#fdb462" stroke="black" cx="728" cy="-104" rx="81.07" ry="18"/>
<text text-anchor="middle" x="728" y="-99.8" font-family="Times,serif" font-size="14.00">CategoriesService</text>
</g>
<!-- CategoriesService&#45;&gt;CategoriesModule -->
<g id="edge3" class="edge">
<title>CategoriesService&#45;&gt;CategoriesModule</title>
<path fill="none" stroke="black" d="M728,-122.11C728,-141.34 728,-169 728,-169 728,-169 453.92,-169 453.92,-169"/>
<polygon fill="black" stroke="black" points="453.92,-165.5 443.92,-169 453.92,-172.5 453.92,-165.5"/>
</g>
<!-- FetchAllCategoriesProvider -->
<g id="node5" class="node">
<title>FetchAllCategoriesProvider</title>
<ellipse fill="#fdb462" stroke="black" cx="509" cy="-104" rx="119.26" ry="18"/>
<text text-anchor="middle" x="509" y="-99.8" font-family="Times,serif" font-size="14.00">FetchAllCategoriesProvider</text>
</g>
<!-- FetchAllCategoriesProvider&#45;&gt;CategoriesModule -->
<g id="edge4" class="edge">
<title>FetchAllCategoriesProvider&#45;&gt;CategoriesModule</title>
<path fill="none" stroke="black" d="M416.67,-115.62C416.67,-115.62 416.67,-140.85 416.67,-140.85"/>
<polygon fill="black" stroke="black" points="413.17,-140.85 416.67,-150.85 420.17,-140.85 413.17,-140.85"/>
</g>
<!-- MutateCategoriesProvider -->
<g id="node6" class="node">
<title>MutateCategoriesProvider</title>
<ellipse fill="#fdb462" stroke="black" cx="259" cy="-104" rx="112.88" ry="18"/>
<text text-anchor="middle" x="259" y="-99.8" font-family="Times,serif" font-size="14.00">MutateCategoriesProvider</text>
</g>
<!-- MutateCategoriesProvider&#45;&gt;CategoriesModule -->
<g id="edge5" class="edge">
<title>MutateCategoriesProvider&#45;&gt;CategoriesModule</title>
<path fill="none" stroke="black" d="M348.12,-115.32C348.12,-115.32 348.12,-140.94 348.12,-140.94"/>
<polygon fill="black" stroke="black" points="344.62,-140.94 348.12,-150.94 351.62,-140.94 344.62,-140.94"/>
</g>
</g>
</svg>
