<?xml version="1.0" encoding="UTF-8" standalone="no"?>
<!DOCTYPE svg PUBLIC "-//W3C//DTD SVG 1.1//EN"
 "http://www.w3.org/Graphics/SVG/1.1/DTD/svg11.dtd">
<!-- Generated by graphviz version 2.47.0 (20210316.0004)
 -->
<!-- Title: dependencies Pages: 1 -->
<svg width="504pt" height="211pt"
 viewBox="0.00 0.00 504.00 211.00" xmlns="http://www.w3.org/2000/svg" xmlns:xlink="http://www.w3.org/1999/xlink">
<g id="graph0" class="graph" transform="scale(1 1) rotate(0) translate(4 207)">
<title>dependencies</title>
<polygon fill="white" stroke="transparent" points="-4,4 -4,-207 500,-207 500,4 -4,4"/>
<text text-anchor="start" x="227.01" y="-42.4" font-family="Times-12" font-weight="bold" font-size="14.00">Legend</text>
<polygon fill="#ffffb3" stroke="transparent" points="14,-10 14,-30 34,-30 34,-10 14,-10"/>
<text text-anchor="start" x="37.63" y="-15.4" font-family="Times-12" font-size="14.00"> &#160;Declarations</text>
<polygon fill="#8dd3c7" stroke="transparent" points="127,-10 127,-30 147,-30 147,-10 127,-10"/>
<text text-anchor="start" x="150.73" y="-15.4" font-family="Times-12" font-size="14.00"> &#160;Module</text>
<polygon fill="#80b1d3" stroke="transparent" points="213,-10 213,-30 233,-30 233,-10 213,-10"/>
<text text-anchor="start" x="236.78" y="-15.4" font-family="Times-12" font-size="14.00"> &#160;Bootstrap</text>
<polygon fill="#fdb462" stroke="transparent" points="310,-10 310,-30 330,-30 330,-10 310,-10"/>
<text text-anchor="start" x="333.67" y="-15.4" font-family="Times-12" font-size="14.00"> &#160;Providers</text>
<polygon fill="#fb8072" stroke="transparent" points="406,-10 406,-30 426,-30 426,-10 406,-10"/>
<text text-anchor="start" x="429.73" y="-15.4" font-family="Times-12" font-size="14.00"> &#160;Exports</text>
<g id="clust1" class="cluster">
<title>cluster_ProductSaleDetailsModule</title>
<polygon fill="none" stroke="black" stroke-dasharray="1,5" points="57,-70 57,-195 439,-195 439,-70 57,-70"/>
</g>
<g id="clust3" class="cluster">
<title>cluster_ProductSaleDetailsModule_imports</title>
<polygon fill="none" stroke="black" points="317,-78 317,-130 431,-130 431,-78 317,-78"/>
</g>
<g id="clust6" class="cluster">
<title>cluster_ProductSaleDetailsModule_providers</title>
<polygon fill="none" stroke="black" points="65,-78 65,-130 309,-130 309,-78 65,-78"/>
</g>
<!-- PrismaModule -->
<g id="node1" class="node">
<title>PrismaModule</title>
<polygon fill="#8dd3c7" stroke="black" points="423.43,-122 420.43,-126 399.43,-126 396.43,-122 324.57,-122 324.57,-86 423.43,-86 423.43,-122"/>
<text text-anchor="middle" x="374" y="-99.8" font-family="Times,serif" font-size="14.00">PrismaModule</text>
</g>
<!-- ProductSaleDetailsModule -->
<g id="node2" class="node">
<title>ProductSaleDetailsModule</title>
<polygon fill="#8dd3c7" stroke="black" points="350.35,-187 347.35,-191 326.35,-191 323.35,-187 183.65,-187 183.65,-151 350.35,-151 350.35,-187"/>
<text text-anchor="middle" x="267" y="-164.8" font-family="Times,serif" font-size="14.00">ProductSaleDetailsModule</text>
</g>
<!-- PrismaModule&#45;&gt;ProductSaleDetailsModule -->
<g id="edge1" class="edge">
<title>PrismaModule&#45;&gt;ProductSaleDetailsModule</title>
<path fill="none" stroke="black" d="M337.6,-122.11C337.6,-122.11 337.6,-140.99 337.6,-140.99"/>
<polygon fill="black" stroke="black" points="334.1,-140.99 337.6,-150.99 341.1,-140.99 334.1,-140.99"/>
</g>
<!-- ProductSaleDetailsService -->
<g id="node3" class="node">
<title>ProductSaleDetailsService</title>
<ellipse fill="#fdb462" stroke="black" cx="187" cy="-104" rx="114.02" ry="18"/>
<text text-anchor="middle" x="187" y="-99.8" font-family="Times,serif" font-size="14.00">ProductSaleDetailsService</text>
</g>
<!-- ProductSaleDetailsService&#45;&gt;ProductSaleDetailsModule -->
<g id="edge2" class="edge">
<title>ProductSaleDetailsService&#45;&gt;ProductSaleDetailsModule</title>
<path fill="none" stroke="black" d="M242.29,-120.07C242.29,-120.07 242.29,-140.82 242.29,-140.82"/>
<polygon fill="black" stroke="black" points="238.79,-140.82 242.29,-150.82 245.79,-140.82 238.79,-140.82"/>
</g>
</g>
</svg>
