<?xml version="1.0" encoding="UTF-8" standalone="no"?>
<!DOCTYPE svg PUBLIC "-//W3C//DTD SVG 1.1//EN"
 "http://www.w3.org/Graphics/SVG/1.1/DTD/svg11.dtd">
<!-- Generated by graphviz version 2.47.0 (20210316.0004)
 -->
<!-- Title: dependencies Pages: 1 -->
<svg width="1895pt" height="211pt"
 viewBox="0.00 0.00 1895.00 211.00" xmlns="http://www.w3.org/2000/svg" xmlns:xlink="http://www.w3.org/1999/xlink">
<g id="graph0" class="graph" transform="scale(1 1) rotate(0) translate(4 207)">
<title>dependencies</title>
<polygon fill="white" stroke="transparent" points="-4,4 -4,-207 1891,-207 1891,4 -4,4"/>
<text text-anchor="start" x="922.51" y="-42.4" font-family="Times-12" font-weight="bold" font-size="14.00">Legend</text>
<polygon fill="#ffffb3" stroke="transparent" points="709.5,-10 709.5,-30 729.5,-30 729.5,-10 709.5,-10"/>
<text text-anchor="start" x="733.13" y="-15.4" font-family="Times-12" font-size="14.00"> &#160;Declarations</text>
<polygon fill="#8dd3c7" stroke="transparent" points="822.5,-10 822.5,-30 842.5,-30 842.5,-10 822.5,-10"/>
<text text-anchor="start" x="846.23" y="-15.4" font-family="Times-12" font-size="14.00"> &#160;Module</text>
<polygon fill="#80b1d3" stroke="transparent" points="908.5,-10 908.5,-30 928.5,-30 928.5,-10 908.5,-10"/>
<text text-anchor="start" x="932.28" y="-15.4" font-family="Times-12" font-size="14.00"> &#160;Bootstrap</text>
<polygon fill="#fdb462" stroke="transparent" points="1005.5,-10 1005.5,-30 1025.5,-30 1025.5,-10 1005.5,-10"/>
<text text-anchor="start" x="1029.17" y="-15.4" font-family="Times-12" font-size="14.00"> &#160;Providers</text>
<polygon fill="#fb8072" stroke="transparent" points="1101.5,-10 1101.5,-30 1121.5,-30 1121.5,-10 1101.5,-10"/>
<text text-anchor="start" x="1125.23" y="-15.4" font-family="Times-12" font-size="14.00"> &#160;Exports</text>
<g id="clust1" class="cluster">
<title>cluster_ProductsModule</title>
<polygon fill="none" stroke="black" stroke-dasharray="1,5" points="8,-70 8,-195 1879,-195 1879,-70 8,-70"/>
</g>
<g id="clust6" class="cluster">
<title>cluster_ProductsModule_providers</title>
<polygon fill="none" stroke="black" points="510,-78 510,-130 1871,-130 1871,-78 510,-78"/>
</g>
<g id="clust3" class="cluster">
<title>cluster_ProductsModule_imports</title>
<polygon fill="none" stroke="black" points="16,-78 16,-130 502,-130 502,-78 16,-78"/>
</g>
<!-- PrismaModule -->
<g id="node1" class="node">
<title>PrismaModule</title>
<polygon fill="#8dd3c7" stroke="black" points="494.43,-122 491.43,-126 470.43,-126 467.43,-122 395.57,-122 395.57,-86 494.43,-86 494.43,-122"/>
<text text-anchor="middle" x="445" y="-99.8" font-family="Times,serif" font-size="14.00">PrismaModule</text>
</g>
<!-- ProductsModule -->
<g id="node4" class="node">
<title>ProductsModule</title>
<polygon fill="#8dd3c7" stroke="black" points="876.04,-187 873.04,-191 852.04,-191 849.04,-187 767.96,-187 767.96,-151 876.04,-151 876.04,-187"/>
<text text-anchor="middle" x="822" y="-164.8" font-family="Times,serif" font-size="14.00">ProductsModule</text>
</g>
<!-- PrismaModule&#45;&gt;ProductsModule -->
<g id="edge1" class="edge">
<title>PrismaModule&#45;&gt;ProductsModule</title>
<path fill="none" stroke="black" d="M445,-122.27C445,-140.56 445,-166 445,-166 445,-166 757.58,-166 757.58,-166"/>
<polygon fill="black" stroke="black" points="757.58,-169.5 767.58,-166 757.58,-162.5 757.58,-169.5"/>
</g>
<!-- ProductRentDetailsModule -->
<g id="node2" class="node">
<title>ProductRentDetailsModule</title>
<polygon fill="#8dd3c7" stroke="black" points="377.69,-122 374.69,-126 353.69,-126 350.69,-122 208.31,-122 208.31,-86 377.69,-86 377.69,-122"/>
<text text-anchor="middle" x="293" y="-99.8" font-family="Times,serif" font-size="14.00">ProductRentDetailsModule</text>
</g>
<!-- ProductRentDetailsModule&#45;&gt;ProductsModule -->
<g id="edge2" class="edge">
<title>ProductRentDetailsModule&#45;&gt;ProductsModule</title>
<path fill="none" stroke="black" d="M293,-122.13C293,-142.57 293,-173 293,-173 293,-173 757.87,-173 757.87,-173"/>
<polygon fill="black" stroke="black" points="757.87,-176.5 767.87,-173 757.87,-169.5 757.87,-176.5"/>
</g>
<!-- ProductSaleDetailsModule -->
<g id="node3" class="node">
<title>ProductSaleDetailsModule</title>
<polygon fill="#8dd3c7" stroke="black" points="190.35,-122 187.35,-126 166.35,-126 163.35,-122 23.65,-122 23.65,-86 190.35,-86 190.35,-122"/>
<text text-anchor="middle" x="107" y="-99.8" font-family="Times,serif" font-size="14.00">ProductSaleDetailsModule</text>
</g>
<!-- ProductSaleDetailsModule&#45;&gt;ProductsModule -->
<g id="edge3" class="edge">
<title>ProductSaleDetailsModule&#45;&gt;ProductsModule</title>
<path fill="none" stroke="black" d="M107,-122.01C107,-144.49 107,-180 107,-180 107,-180 757.67,-180 757.67,-180"/>
<polygon fill="black" stroke="black" points="757.67,-183.5 767.67,-180 757.67,-176.5 757.67,-183.5"/>
</g>
<!-- CreateProductsProvider -->
<g id="node5" class="node">
<title>CreateProductsProvider</title>
<ellipse fill="#fdb462" stroke="black" cx="1760" cy="-104" rx="103.07" ry="18"/>
<text text-anchor="middle" x="1760" y="-99.8" font-family="Times,serif" font-size="14.00">CreateProductsProvider</text>
</g>
<!-- CreateProductsProvider&#45;&gt;ProductsModule -->
<g id="edge4" class="edge">
<title>CreateProductsProvider&#45;&gt;ProductsModule</title>
<path fill="none" stroke="black" d="M1760,-122.01C1760,-144.49 1760,-180 1760,-180 1760,-180 886.14,-180 886.14,-180"/>
<polygon fill="black" stroke="black" points="886.14,-176.5 876.14,-180 886.14,-183.5 886.14,-176.5"/>
</g>
<!-- DeleteProductsProvider -->
<g id="node6" class="node">
<title>DeleteProductsProvider</title>
<ellipse fill="#fdb462" stroke="black" cx="1535" cy="-104" rx="103.07" ry="18"/>
<text text-anchor="middle" x="1535" y="-99.8" font-family="Times,serif" font-size="14.00">DeleteProductsProvider</text>
</g>
<!-- DeleteProductsProvider&#45;&gt;ProductsModule -->
<g id="edge5" class="edge">
<title>DeleteProductsProvider&#45;&gt;ProductsModule</title>
<path fill="none" stroke="black" d="M1535,-122.13C1535,-142.57 1535,-173 1535,-173 1535,-173 886.18,-173 886.18,-173"/>
<polygon fill="black" stroke="black" points="886.18,-169.5 876.18,-173 886.18,-176.5 886.18,-169.5"/>
</g>
<!-- FetchAllProductsProvider -->
<g id="node7" class="node">
<title>FetchAllProductsProvider</title>
<ellipse fill="#fdb462" stroke="black" cx="1302" cy="-104" rx="111.75" ry="18"/>
<text text-anchor="middle" x="1302" y="-99.8" font-family="Times,serif" font-size="14.00">FetchAllProductsProvider</text>
</g>
<!-- FetchAllProductsProvider&#45;&gt;ProductsModule -->
<g id="edge6" class="edge">
<title>FetchAllProductsProvider&#45;&gt;ProductsModule</title>
<path fill="none" stroke="black" d="M1302,-122.27C1302,-140.56 1302,-166 1302,-166 1302,-166 886.13,-166 886.13,-166"/>
<polygon fill="black" stroke="black" points="886.13,-162.5 876.13,-166 886.13,-169.5 886.13,-162.5"/>
</g>
<!-- FetchProductsByUserProvider -->
<g id="node8" class="node">
<title>FetchProductsByUserProvider</title>
<ellipse fill="#fdb462" stroke="black" cx="1043" cy="-104" rx="129.07" ry="18"/>
<text text-anchor="middle" x="1043" y="-99.8" font-family="Times,serif" font-size="14.00">FetchProductsByUserProvider</text>
</g>
<!-- FetchProductsByUserProvider&#45;&gt;ProductsModule -->
<g id="edge7" class="edge">
<title>FetchProductsByUserProvider&#45;&gt;ProductsModule</title>
<path fill="none" stroke="black" d="M1043,-122.01C1043,-138.05 1043,-159 1043,-159 1043,-159 886.06,-159 886.06,-159"/>
<polygon fill="black" stroke="black" points="886.06,-155.5 876.06,-159 886.06,-162.5 886.06,-155.5"/>
</g>
<!-- ProductsService -->
<g id="node9" class="node">
<title>ProductsService</title>
<ellipse fill="#fdb462" stroke="black" cx="822" cy="-104" rx="73.57" ry="18"/>
<text text-anchor="middle" x="822" y="-99.8" font-family="Times,serif" font-size="14.00">ProductsService</text>
</g>
<!-- ProductsService&#45;&gt;ProductsModule -->
<g id="edge8" class="edge">
<title>ProductsService&#45;&gt;ProductsModule</title>
<path fill="none" stroke="black" d="M822,-122.11C822,-122.11 822,-140.99 822,-140.99"/>
<polygon fill="black" stroke="black" points="818.5,-140.99 822,-150.99 825.5,-140.99 818.5,-140.99"/>
</g>
<!-- UpdateProductsProvider -->
<g id="node10" class="node">
<title>UpdateProductsProvider</title>
<ellipse fill="#fdb462" stroke="black" cx="624" cy="-104" rx="105.94" ry="18"/>
<text text-anchor="middle" x="624" y="-99.8" font-family="Times,serif" font-size="14.00">UpdateProductsProvider</text>
</g>
<!-- UpdateProductsProvider&#45;&gt;ProductsModule -->
<g id="edge9" class="edge">
<title>UpdateProductsProvider&#45;&gt;ProductsModule</title>
<path fill="none" stroke="black" d="M624,-122.01C624,-138.05 624,-159 624,-159 624,-159 757.9,-159 757.9,-159"/>
<polygon fill="black" stroke="black" points="757.9,-162.5 767.9,-159 757.9,-155.5 757.9,-162.5"/>
</g>
</g>
</svg>
