<?xml version="1.0" encoding="UTF-8" standalone="no"?>
<!DOCTYPE svg PUBLIC "-//W3C//DTD SVG 1.1//EN"
 "http://www.w3.org/Graphics/SVG/1.1/DTD/svg11.dtd">
<!-- Generated by graphviz version 2.47.0 (20210316.0004)
 -->
<!-- Title: dependencies Pages: 1 -->
<svg width="714pt" height="211pt"
 viewBox="0.00 0.00 714.00 211.00" xmlns="http://www.w3.org/2000/svg" xmlns:xlink="http://www.w3.org/1999/xlink">
<g id="graph0" class="graph" transform="scale(1 1) rotate(0) translate(4 207)">
<title>dependencies</title>
<polygon fill="white" stroke="transparent" points="-4,4 -4,-207 710,-207 710,4 -4,4"/>
<text text-anchor="start" x="332.01" y="-42.4" font-family="Times-12" font-weight="bold" font-size="14.00">Legend</text>
<polygon fill="#ffffb3" stroke="transparent" points="119,-10 119,-30 139,-30 139,-10 119,-10"/>
<text text-anchor="start" x="142.63" y="-15.4" font-family="Times-12" font-size="14.00"> &#160;Declarations</text>
<polygon fill="#8dd3c7" stroke="transparent" points="232,-10 232,-30 252,-30 252,-10 232,-10"/>
<text text-anchor="start" x="255.73" y="-15.4" font-family="Times-12" font-size="14.00"> &#160;Module</text>
<polygon fill="#80b1d3" stroke="transparent" points="318,-10 318,-30 338,-30 338,-10 318,-10"/>
<text text-anchor="start" x="341.78" y="-15.4" font-family="Times-12" font-size="14.00"> &#160;Bootstrap</text>
<polygon fill="#fdb462" stroke="transparent" points="415,-10 415,-30 435,-30 435,-10 415,-10"/>
<text text-anchor="start" x="438.67" y="-15.4" font-family="Times-12" font-size="14.00"> &#160;Providers</text>
<polygon fill="#fb8072" stroke="transparent" points="511,-10 511,-30 531,-30 531,-10 511,-10"/>
<text text-anchor="start" x="534.73" y="-15.4" font-family="Times-12" font-size="14.00"> &#160;Exports</text>
<g id="clust1" class="cluster">
<title>cluster_OrdersModule</title>
<polygon fill="none" stroke="black" stroke-dasharray="1,5" points="8,-70 8,-195 698,-195 698,-70 8,-70"/>
</g>
<g id="clust6" class="cluster">
<title>cluster_OrdersModule_providers</title>
<polygon fill="none" stroke="black" points="138,-78 138,-130 690,-130 690,-78 138,-78"/>
</g>
<g id="clust3" class="cluster">
<title>cluster_OrdersModule_imports</title>
<polygon fill="none" stroke="black" points="16,-78 16,-130 130,-130 130,-78 16,-78"/>
</g>
<!-- PrismaModule -->
<g id="node1" class="node">
<title>PrismaModule</title>
<polygon fill="#8dd3c7" stroke="black" points="122.43,-122 119.43,-126 98.43,-126 95.43,-122 23.57,-122 23.57,-86 122.43,-86 122.43,-122"/>
<text text-anchor="middle" x="73" y="-99.8" font-family="Times,serif" font-size="14.00">PrismaModule</text>
</g>
<!-- OrdersModule -->
<g id="node2" class="node">
<title>OrdersModule</title>
<polygon fill="#8dd3c7" stroke="black" points="348.64,-187 345.64,-191 324.64,-191 321.64,-187 251.36,-187 251.36,-151 348.64,-151 348.64,-187"/>
<text text-anchor="middle" x="300" y="-164.8" font-family="Times,serif" font-size="14.00">OrdersModule</text>
</g>
<!-- PrismaModule&#45;&gt;OrdersModule -->
<g id="edge1" class="edge">
<title>PrismaModule&#45;&gt;OrdersModule</title>
<path fill="none" stroke="black" d="M73,-122.11C73,-141.34 73,-169 73,-169 73,-169 241.3,-169 241.3,-169"/>
<polygon fill="black" stroke="black" points="241.3,-172.5 251.3,-169 241.3,-165.5 241.3,-172.5"/>
</g>
<!-- CreateOrderProvider -->
<g id="node3" class="node">
<title>CreateOrderProvider</title>
<ellipse fill="#fdb462" stroke="black" cx="590" cy="-104" rx="92.01" ry="18"/>
<text text-anchor="middle" x="590" y="-99.8" font-family="Times,serif" font-size="14.00">CreateOrderProvider</text>
</g>
<!-- CreateOrderProvider&#45;&gt;OrdersModule -->
<g id="edge2" class="edge">
<title>CreateOrderProvider&#45;&gt;OrdersModule</title>
<path fill="none" stroke="black" d="M590,-122.11C590,-141.34 590,-169 590,-169 590,-169 358.87,-169 358.87,-169"/>
<polygon fill="black" stroke="black" points="358.87,-165.5 348.87,-169 358.87,-172.5 358.87,-165.5"/>
</g>
<!-- FetchOrdersProvider -->
<g id="node4" class="node">
<title>FetchOrdersProvider</title>
<ellipse fill="#fdb462" stroke="black" cx="388" cy="-104" rx="92.03" ry="18"/>
<text text-anchor="middle" x="388" y="-99.8" font-family="Times,serif" font-size="14.00">FetchOrdersProvider</text>
</g>
<!-- FetchOrdersProvider&#45;&gt;OrdersModule -->
<g id="edge3" class="edge">
<title>FetchOrdersProvider&#45;&gt;OrdersModule</title>
<path fill="none" stroke="black" d="M322.4,-116.84C322.4,-116.84 322.4,-140.52 322.4,-140.52"/>
<polygon fill="black" stroke="black" points="318.9,-140.52 322.4,-150.52 325.9,-140.52 318.9,-140.52"/>
</g>
<!-- OrdersService -->
<g id="node5" class="node">
<title>OrdersService</title>
<ellipse fill="#fdb462" stroke="black" cx="212" cy="-104" rx="66.03" ry="18"/>
<text text-anchor="middle" x="212" y="-99.8" font-family="Times,serif" font-size="14.00">OrdersService</text>
</g>
<!-- OrdersService&#45;&gt;OrdersModule -->
<g id="edge4" class="edge">
<title>OrdersService&#45;&gt;OrdersModule</title>
<path fill="none" stroke="black" d="M264.72,-115.03C264.72,-115.03 264.72,-140.78 264.72,-140.78"/>
<polygon fill="black" stroke="black" points="261.22,-140.78 264.72,-150.78 268.22,-140.78 261.22,-140.78"/>
</g>
</g>
</svg>
