<?xml version="1.0" encoding="UTF-8" standalone="no"?>
<!DOCTYPE svg PUBLIC "-//W3C//DTD SVG 1.1//EN"
 "http://www.w3.org/Graphics/SVG/1.1/DTD/svg11.dtd">
<!-- Generated by graphviz version 2.47.0 (20210316.0004)
 -->
<!-- Title: dependencies Pages: 1 -->
<svg width="914pt" height="211pt"
 viewBox="0.00 0.00 914.00 211.00" xmlns="http://www.w3.org/2000/svg" xmlns:xlink="http://www.w3.org/1999/xlink">
<g id="graph0" class="graph" transform="scale(1 1) rotate(0) translate(4 207)">
<title>dependencies</title>
<polygon fill="white" stroke="transparent" points="-4,4 -4,-207 910,-207 910,4 -4,4"/>
<text text-anchor="start" x="432.01" y="-42.4" font-family="Times-12" font-weight="bold" font-size="14.00">Legend</text>
<polygon fill="#ffffb3" stroke="transparent" points="219,-10 219,-30 239,-30 239,-10 219,-10"/>
<text text-anchor="start" x="242.63" y="-15.4" font-family="Times-12" font-size="14.00"> &#160;Declarations</text>
<polygon fill="#8dd3c7" stroke="transparent" points="332,-10 332,-30 352,-30 352,-10 332,-10"/>
<text text-anchor="start" x="355.73" y="-15.4" font-family="Times-12" font-size="14.00"> &#160;Module</text>
<polygon fill="#80b1d3" stroke="transparent" points="418,-10 418,-30 438,-30 438,-10 418,-10"/>
<text text-anchor="start" x="441.78" y="-15.4" font-family="Times-12" font-size="14.00"> &#160;Bootstrap</text>
<polygon fill="#fdb462" stroke="transparent" points="515,-10 515,-30 535,-30 535,-10 515,-10"/>
<text text-anchor="start" x="538.67" y="-15.4" font-family="Times-12" font-size="14.00"> &#160;Providers</text>
<polygon fill="#fb8072" stroke="transparent" points="611,-10 611,-30 631,-30 631,-10 611,-10"/>
<text text-anchor="start" x="634.73" y="-15.4" font-family="Times-12" font-size="14.00"> &#160;Exports</text>
<g id="clust1" class="cluster">
<title>cluster_CartModule</title>
<polygon fill="none" stroke="black" stroke-dasharray="1,5" points="8,-70 8,-195 898,-195 898,-70 8,-70"/>
</g>
<g id="clust6" class="cluster">
<title>cluster_CartModule_providers</title>
<polygon fill="none" stroke="black" points="138,-78 138,-130 890,-130 890,-78 138,-78"/>
</g>
<g id="clust3" class="cluster">
<title>cluster_CartModule_imports</title>
<polygon fill="none" stroke="black" points="16,-78 16,-130 130,-130 130,-78 16,-78"/>
</g>
<!-- PrismaModule -->
<g id="node1" class="node">
<title>PrismaModule</title>
<polygon fill="#8dd3c7" stroke="black" points="122.43,-122 119.43,-126 98.43,-126 95.43,-122 23.57,-122 23.57,-86 122.43,-86 122.43,-122"/>
<text text-anchor="middle" x="73" y="-99.8" font-family="Times,serif" font-size="14.00">PrismaModule</text>
</g>
<!-- CartModule -->
<g id="node2" class="node">
<title>CartModule</title>
<polygon fill="#8dd3c7" stroke="black" points="515.65,-187 512.65,-191 491.65,-191 488.65,-187 432.35,-187 432.35,-151 515.65,-151 515.65,-187"/>
<text text-anchor="middle" x="474" y="-164.8" font-family="Times,serif" font-size="14.00">CartModule</text>
</g>
<!-- PrismaModule&#45;&gt;CartModule -->
<g id="edge1" class="edge">
<title>PrismaModule&#45;&gt;CartModule</title>
<path fill="none" stroke="black" d="M73,-122.28C73,-143.32 73,-175 73,-175 73,-175 422.22,-175 422.22,-175"/>
<polygon fill="black" stroke="black" points="422.22,-178.5 432.22,-175 422.22,-171.5 422.22,-178.5"/>
</g>
<!-- AddToCartProvider -->
<g id="node3" class="node">
<title>AddToCartProvider</title>
<ellipse fill="#fdb462" stroke="black" cx="794" cy="-104" rx="88.04" ry="18"/>
<text text-anchor="middle" x="794" y="-99.8" font-family="Times,serif" font-size="14.00">AddToCartProvider</text>
</g>
<!-- AddToCartProvider&#45;&gt;CartModule -->
<g id="edge2" class="edge">
<title>AddToCartProvider&#45;&gt;CartModule</title>
<path fill="none" stroke="black" d="M794,-122.28C794,-143.32 794,-175 794,-175 794,-175 525.83,-175 525.83,-175"/>
<polygon fill="black" stroke="black" points="525.83,-171.5 515.83,-175 525.83,-178.5 525.83,-171.5"/>
</g>
<!-- CartService -->
<g id="node4" class="node">
<title>CartService</title>
<ellipse fill="#fdb462" stroke="black" cx="631" cy="-104" rx="56.73" ry="18"/>
<text text-anchor="middle" x="631" y="-99.8" font-family="Times,serif" font-size="14.00">CartService</text>
</g>
<!-- CartService&#45;&gt;CartModule -->
<g id="edge3" class="edge">
<title>CartService&#45;&gt;CartModule</title>
<path fill="none" stroke="black" d="M631,-122.02C631,-139.37 631,-163 631,-163 631,-163 525.66,-163 525.66,-163"/>
<polygon fill="black" stroke="black" points="525.66,-159.5 515.66,-163 525.66,-166.5 525.66,-159.5"/>
</g>
<!-- FetchCartProvider -->
<g id="node5" class="node">
<title>FetchCartProvider</title>
<ellipse fill="#fdb462" stroke="black" cx="474" cy="-104" rx="82.24" ry="18"/>
<text text-anchor="middle" x="474" y="-99.8" font-family="Times,serif" font-size="14.00">FetchCartProvider</text>
</g>
<!-- FetchCartProvider&#45;&gt;CartModule -->
<g id="edge4" class="edge">
<title>FetchCartProvider&#45;&gt;CartModule</title>
<path fill="none" stroke="black" d="M474,-122.11C474,-122.11 474,-140.99 474,-140.99"/>
<polygon fill="black" stroke="black" points="470.5,-140.99 474,-150.99 477.5,-140.99 470.5,-140.99"/>
</g>
<!-- RemoveFromCartProvider -->
<g id="node6" class="node">
<title>RemoveFromCartProvider</title>
<ellipse fill="#fdb462" stroke="black" cx="260" cy="-104" rx="114.04" ry="18"/>
<text text-anchor="middle" x="260" y="-99.8" font-family="Times,serif" font-size="14.00">RemoveFromCartProvider</text>
</g>
<!-- RemoveFromCartProvider&#45;&gt;CartModule -->
<g id="edge5" class="edge">
<title>RemoveFromCartProvider&#45;&gt;CartModule</title>
<path fill="none" stroke="black" d="M260,-122.02C260,-139.37 260,-163 260,-163 260,-163 422.23,-163 422.23,-163"/>
<polygon fill="black" stroke="black" points="422.23,-166.5 432.23,-163 422.23,-159.5 422.23,-166.5"/>
</g>
</g>
</svg>
