<?xml version="1.0" encoding="UTF-8" standalone="no"?>
<!DOCTYPE svg PUBLIC "-//W3C//DTD SVG 1.1//EN"
 "http://www.w3.org/Graphics/SVG/1.1/DTD/svg11.dtd">
<!-- Generated by graphviz version 2.47.0 (20210316.0004)
 -->
<!-- Title: dependencies Pages: 1 -->
<svg width="1488pt" height="211pt"
 viewBox="0.00 0.00 1488.00 211.00" xmlns="http://www.w3.org/2000/svg" xmlns:xlink="http://www.w3.org/1999/xlink">
<g id="graph0" class="graph" transform="scale(1 1) rotate(0) translate(4 207)">
<title>dependencies</title>
<polygon fill="white" stroke="transparent" points="-4,4 -4,-207 1484,-207 1484,4 -4,4"/>
<text text-anchor="start" x="719.01" y="-42.4" font-family="Times-12" font-weight="bold" font-size="14.00">Legend</text>
<polygon fill="#ffffb3" stroke="transparent" points="506,-10 506,-30 526,-30 526,-10 506,-10"/>
<text text-anchor="start" x="529.63" y="-15.4" font-family="Times-12" font-size="14.00"> &#160;Declarations</text>
<polygon fill="#8dd3c7" stroke="transparent" points="619,-10 619,-30 639,-30 639,-10 619,-10"/>
<text text-anchor="start" x="642.73" y="-15.4" font-family="Times-12" font-size="14.00"> &#160;Module</text>
<polygon fill="#80b1d3" stroke="transparent" points="705,-10 705,-30 725,-30 725,-10 705,-10"/>
<text text-anchor="start" x="728.78" y="-15.4" font-family="Times-12" font-size="14.00"> &#160;Bootstrap</text>
<polygon fill="#fdb462" stroke="transparent" points="802,-10 802,-30 822,-30 822,-10 802,-10"/>
<text text-anchor="start" x="825.67" y="-15.4" font-family="Times-12" font-size="14.00"> &#160;Providers</text>
<polygon fill="#fb8072" stroke="transparent" points="898,-10 898,-30 918,-30 918,-10 898,-10"/>
<text text-anchor="start" x="921.73" y="-15.4" font-family="Times-12" font-size="14.00"> &#160;Exports</text>
<g id="clust1" class="cluster">
<title>cluster_AppModule</title>
<polygon fill="none" stroke="black" stroke-dasharray="1,5" points="8,-70 8,-195 1472,-195 1472,-70 8,-70"/>
</g>
<g id="clust3" class="cluster">
<title>cluster_AppModule_imports</title>
<polygon fill="none" stroke="black" points="174,-78 174,-130 1464,-130 1464,-78 174,-78"/>
</g>
<g id="clust6" class="cluster">
<title>cluster_AppModule_providers</title>
<polygon fill="none" stroke="black" points="16,-78 16,-130 166,-130 166,-78 16,-78"/>
</g>
<!-- AuthModule -->
<g id="node1" class="node">
<title>AuthModule</title>
<polygon fill="#8dd3c7" stroke="black" points="1455.55,-122 1452.55,-126 1431.55,-126 1428.55,-122 1368.45,-122 1368.45,-86 1455.55,-86 1455.55,-122"/>
<text text-anchor="middle" x="1412" y="-99.8" font-family="Times,serif" font-size="14.00">AuthModule</text>
</g>
<!-- AppModule -->
<g id="node11" class="node">
<title>AppModule</title>
<polygon fill="#8dd3c7" stroke="black" points="834.66,-187 831.66,-191 810.66,-191 807.66,-187 751.34,-187 751.34,-151 834.66,-151 834.66,-187"/>
<text text-anchor="middle" x="793" y="-164.8" font-family="Times,serif" font-size="14.00">AppModule</text>
</g>
<!-- AuthModule&#45;&gt;AppModule -->
<g id="edge1" class="edge">
<title>AuthModule&#45;&gt;AppModule</title>
<path fill="none" stroke="black" d="M1412,-122.09C1412,-145.13 1412,-182 1412,-182 1412,-182 845.06,-182 845.06,-182"/>
<polygon fill="black" stroke="black" points="845.06,-178.5 835.06,-182 845.06,-185.5 845.06,-178.5"/>
</g>
<!-- CartModule -->
<g id="node2" class="node">
<title>CartModule</title>
<polygon fill="#8dd3c7" stroke="black" points="1349.65,-122 1346.65,-126 1325.65,-126 1322.65,-122 1266.35,-122 1266.35,-86 1349.65,-86 1349.65,-122"/>
<text text-anchor="middle" x="1308" y="-99.8" font-family="Times,serif" font-size="14.00">CartModule</text>
</g>
<!-- CartModule&#45;&gt;AppModule -->
<g id="edge2" class="edge">
<title>CartModule&#45;&gt;AppModule</title>
<path fill="none" stroke="black" d="M1308,-122.28C1308,-143.32 1308,-175 1308,-175 1308,-175 844.71,-175 844.71,-175"/>
<polygon fill="black" stroke="black" points="844.71,-171.5 834.71,-175 844.71,-178.5 844.71,-171.5"/>
</g>
<!-- CategoriesModule -->
<g id="node3" class="node">
<title>CategoriesModule</title>
<polygon fill="#8dd3c7" stroke="black" points="1247.92,-122 1244.92,-126 1223.92,-126 1220.92,-122 1128.08,-122 1128.08,-86 1247.92,-86 1247.92,-122"/>
<text text-anchor="middle" x="1188" y="-99.8" font-family="Times,serif" font-size="14.00">CategoriesModule</text>
</g>
<!-- CategoriesModule&#45;&gt;AppModule -->
<g id="edge3" class="edge">
<title>CategoriesModule&#45;&gt;AppModule</title>
<path fill="none" stroke="black" d="M1188,-122.11C1188,-141.34 1188,-169 1188,-169 1188,-169 844.9,-169 844.9,-169"/>
<polygon fill="black" stroke="black" points="844.9,-165.5 834.9,-169 844.9,-172.5 844.9,-165.5"/>
</g>
<!-- OrdersModule -->
<g id="node4" class="node">
<title>OrdersModule</title>
<polygon fill="#8dd3c7" stroke="black" points="1109.64,-122 1106.64,-126 1085.64,-126 1082.64,-122 1012.36,-122 1012.36,-86 1109.64,-86 1109.64,-122"/>
<text text-anchor="middle" x="1061" y="-99.8" font-family="Times,serif" font-size="14.00">OrdersModule</text>
</g>
<!-- OrdersModule&#45;&gt;AppModule -->
<g id="edge4" class="edge">
<title>OrdersModule&#45;&gt;AppModule</title>
<path fill="none" stroke="black" d="M1061,-122.02C1061,-139.37 1061,-163 1061,-163 1061,-163 844.88,-163 844.88,-163"/>
<polygon fill="black" stroke="black" points="844.88,-159.5 834.88,-163 844.87,-166.5 844.88,-159.5"/>
</g>
<!-- PrismaModule -->
<g id="node5" class="node">
<title>PrismaModule</title>
<polygon fill="#8dd3c7" stroke="black" points="994.43,-122 991.43,-126 970.43,-126 967.43,-122 895.57,-122 895.57,-86 994.43,-86 994.43,-122"/>
<text text-anchor="middle" x="945" y="-99.8" font-family="Times,serif" font-size="14.00">PrismaModule</text>
</g>
<!-- PrismaModule&#45;&gt;AppModule -->
<g id="edge5" class="edge">
<title>PrismaModule&#45;&gt;AppModule</title>
<path fill="none" stroke="black" d="M945,-122.24C945,-137.57 945,-157 945,-157 945,-157 844.94,-157 844.94,-157"/>
<polygon fill="black" stroke="black" points="844.94,-153.5 834.94,-157 844.94,-160.5 844.94,-153.5"/>
</g>
<!-- ProductRentDetailsModule -->
<g id="node6" class="node">
<title>ProductRentDetailsModule</title>
<polygon fill="#8dd3c7" stroke="black" points="877.69,-122 874.69,-126 853.69,-126 850.69,-122 708.31,-122 708.31,-86 877.69,-86 877.69,-122"/>
<text text-anchor="middle" x="793" y="-99.8" font-family="Times,serif" font-size="14.00">ProductRentDetailsModule</text>
</g>
<!-- ProductRentDetailsModule&#45;&gt;AppModule -->
<g id="edge6" class="edge">
<title>ProductRentDetailsModule&#45;&gt;AppModule</title>
<path fill="none" stroke="black" d="M793,-122.11C793,-122.11 793,-140.99 793,-140.99"/>
<polygon fill="black" stroke="black" points="789.5,-140.99 793,-150.99 796.5,-140.99 789.5,-140.99"/>
</g>
<!-- ProductSaleDetailsModule -->
<g id="node7" class="node">
<title>ProductSaleDetailsModule</title>
<polygon fill="#8dd3c7" stroke="black" points="690.35,-122 687.35,-126 666.35,-126 663.35,-122 523.65,-122 523.65,-86 690.35,-86 690.35,-122"/>
<text text-anchor="middle" x="607" y="-99.8" font-family="Times,serif" font-size="14.00">ProductSaleDetailsModule</text>
</g>
<!-- ProductSaleDetailsModule&#45;&gt;AppModule -->
<g id="edge7" class="edge">
<title>ProductSaleDetailsModule&#45;&gt;AppModule</title>
<path fill="none" stroke="black" d="M607,-122.24C607,-137.57 607,-157 607,-157 607,-157 741.26,-157 741.26,-157"/>
<polygon fill="black" stroke="black" points="741.26,-160.5 751.26,-157 741.26,-153.5 741.26,-160.5"/>
</g>
<!-- ProductsModule -->
<g id="node8" class="node">
<title>ProductsModule</title>
<polygon fill="#8dd3c7" stroke="black" points="505.04,-122 502.04,-126 481.04,-126 478.04,-122 396.96,-122 396.96,-86 505.04,-86 505.04,-122"/>
<text text-anchor="middle" x="451" y="-99.8" font-family="Times,serif" font-size="14.00">ProductsModule</text>
</g>
<!-- ProductsModule&#45;&gt;AppModule -->
<g id="edge8" class="edge">
<title>ProductsModule&#45;&gt;AppModule</title>
<path fill="none" stroke="black" d="M451,-122.02C451,-139.37 451,-163 451,-163 451,-163 741.06,-163 741.06,-163"/>
<polygon fill="black" stroke="black" points="741.06,-166.5 751.06,-163 741.06,-159.5 741.06,-166.5"/>
</g>
<!-- SeedModule -->
<g id="node9" class="node">
<title>SeedModule</title>
<polygon fill="#8dd3c7" stroke="black" points="378.26,-122 375.26,-126 354.26,-126 351.26,-122 291.74,-122 291.74,-86 378.26,-86 378.26,-122"/>
<text text-anchor="middle" x="335" y="-99.8" font-family="Times,serif" font-size="14.00">SeedModule</text>
</g>
<!-- SeedModule&#45;&gt;AppModule -->
<g id="edge9" class="edge">
<title>SeedModule&#45;&gt;AppModule</title>
<path fill="none" stroke="black" d="M335,-122.11C335,-141.34 335,-169 335,-169 335,-169 741.14,-169 741.14,-169"/>
<polygon fill="black" stroke="black" points="741.14,-172.5 751.14,-169 741.14,-165.5 741.14,-172.5"/>
</g>
<!-- UsersModule -->
<g id="node10" class="node">
<title>UsersModule</title>
<polygon fill="#8dd3c7" stroke="black" points="273.92,-122 270.92,-126 249.92,-126 246.92,-122 182.08,-122 182.08,-86 273.92,-86 273.92,-122"/>
<text text-anchor="middle" x="228" y="-99.8" font-family="Times,serif" font-size="14.00">UsersModule</text>
</g>
<!-- UsersModule&#45;&gt;AppModule -->
<g id="edge10" class="edge">
<title>UsersModule&#45;&gt;AppModule</title>
<path fill="none" stroke="black" d="M228,-122.28C228,-143.32 228,-175 228,-175 228,-175 740.99,-175 740.99,-175"/>
<polygon fill="black" stroke="black" points="740.99,-178.5 750.99,-175 740.99,-171.5 740.99,-178.5"/>
</g>
<!-- PrismaService -->
<g id="node12" class="node">
<title>PrismaService</title>
<ellipse fill="#fdb462" stroke="black" cx="91" cy="-104" rx="66.63" ry="18"/>
<text text-anchor="middle" x="91" y="-99.8" font-family="Times,serif" font-size="14.00">PrismaService</text>
</g>
<!-- PrismaService&#45;&gt;AppModule -->
<g id="edge11" class="edge">
<title>PrismaService&#45;&gt;AppModule</title>
<path fill="none" stroke="black" d="M91,-122.09C91,-145.13 91,-182 91,-182 91,-182 741.19,-182 741.19,-182"/>
<polygon fill="black" stroke="black" points="741.19,-185.5 751.19,-182 741.19,-178.5 741.19,-185.5"/>
</g>
</g>
</svg>
